<svg xmlns="http://www.w3.org/2000/svg" viewBox="0 0 442.85 389.98"><defs><style>.cls-1{fill:#f8ed41;}.cls-10,.cls-2{opacity:0.15;}.cls-3{fill:#26341c;}.cls-4{fill:#37474f;}.cls-5{fill:#263238;}.cls-6{fill:#455a64;}.cls-7{fill:#fafafa;}.cls-8{fill:#4f6131;}.cls-9{fill:#fff;}.cls-29,.cls-9{opacity:0.3;}.cls-11{opacity:0.2;}.cls-12{fill:#f3f4d3;}.cls-13{fill:#e0e0e0;}.cls-14,.cls-25{opacity:0.1;}.cls-15{fill:#dcdda1;}.cls-16{opacity:0.05;}.cls-17{fill:#ffa8a7;}.cls-18{fill:#f28f8f;}.cls-19{fill:#b16668;}.cls-20{fill:#ead93f;}.cls-21{fill:#e8d83f;}.cls-22{fill:#cebc3a;}.cls-23{fill:#ccba3a;}.cls-24{fill:#ddcd3c;}.cls-26{fill:#efecb4;}.cls-27{fill:#bcbb8b;}.cls-28{fill:#eaeaac;}.cls-30{fill:#f4efba;}.cls-31{fill:#ddd9a8;}.cls-32{opacity:0.25;}.cls-33{fill:#c6c691;}.cls-34{fill:#b7b688;}</style></defs><g id="Layer_2" data-name="Layer 2"><g id="Paper_Planes" data-name="Paper Planes"><g id="Plants"><path class="cls-1" d="M31.51,294.94,38.32,291s4-16.83,2.43-32c-2.27-21.29-16.28-29.31-21.61-27.47s-6.88,8,1.94,20.72C26.29,259.76,32.68,275.35,31.51,294.94Z"/><g class="cls-2"><path d="M31.51,294.94,38.32,291s4-16.83,2.43-32c-2.27-21.29-16.28-29.31-21.61-27.47s-6.88,8,1.94,20.72C26.29,259.76,32.68,275.35,31.51,294.94Z"/></g><path class="cls-3" d="M34.33,286.67h-.06a.48.48,0,0,1-.38-.56c3.73-19.64-3.13-41.71-11.63-50.89a.47.47,0,1,1,.7-.64c8.65,9.35,15.64,31.78,11.86,51.71A.48.48,0,0,1,34.33,286.67Z"/><path class="cls-1" d="M12.7,308.22c-1.07.55-3.93-1.9-4.73-2.49a10,10,0,0,1-3.12-4,9.27,9.27,0,0,1-.55-5.65,21.64,21.64,0,0,1,.86-3c.33-.95.65-1.91,1-2.86a7.32,7.32,0,0,0,.57-2.9c-.15-2-1.84-3.47-3.38-4.75C1.63,281.23-.12,279.39,0,277a8.38,8.38,0,0,1,2.35-4.88c1.21-1.39,2.63-2.6,3.74-4.07a5.88,5.88,0,0,0,1.39-3.65,6.31,6.31,0,0,0-.69-2.35,31.78,31.78,0,0,1-2.3-4.78c-.5-1.69-.31-3.76,1-4.89a5.44,5.44,0,0,1,4.15-.82,9.42,9.42,0,0,1,3.75,1.54c3.69,2.3,5.62,6.89,9.56,8.71a39.59,39.59,0,0,0,4.8,1.44,6,6,0,0,1,3.87,2.95c1.33,3-1.59,6.51-.71,9.69.78,2.81,3.41,4,4.8,6.58a6,6,0,0,1,.52,3.66,17.27,17.27,0,0,1-1.84,6,53.73,53.73,0,0,1-3.63,5.59S12.87,308.14,12.7,308.22Z"/><path class="cls-3" d="M23.12,302.79h0a.46.46,0,0,1-.43-.51c1.72-18.68-6.06-39.8-12.17-46.13a.46.46,0,0,1,0-.66.47.47,0,0,1,.67,0c6.23,6.45,14.17,27.92,12.43,46.86A.48.48,0,0,1,23.12,302.79Z"/><path class="cls-3" d="M21.27,279.76a.58.58,0,0,1-.14,0,63.92,63.92,0,0,0-13.48-2.88.47.47,0,0,1,.09-.94,65.06,65.06,0,0,1,13.71,2.93.47.47,0,0,1,.28.61A.46.46,0,0,1,21.27,279.76Z"/></g><g id="Device"><g id="Mobile"><path class="cls-4" d="M17.19,319.16l119.69,69.09a12.88,12.88,0,0,0,12.48.23l241-139.12c3.79-2.2,6.87-7.1,6.87-11s-3.07-8.76-6.87-10.95L271.08,158.61a15.24,15.24,0,0,0-13.75,0L17.19,297.26c-3.79,2.19-6.87,7.1-6.87,10.95S13.4,317,17.19,319.16Z"/><path class="cls-5" d="M136.87,388.25,17.19,319.16c-3.79-2.19-6.87-7.09-6.87-11s3.08-8.76,6.87-10.95l126.2-72.86V390A12.85,12.85,0,0,1,136.87,388.25Z"/><path class="cls-6" d="M139.72,375.94a13.47,13.47,0,0,0,12.12,0l238.51-137.7c5.13-3,5.13-7.81,0-10.77L271.09,158.61a15.24,15.24,0,0,0-13.75,0L17.2,297.26c-3.78,2.18-3.78,5.76,0,7.94Z"/><path class="cls-4" d="M151.3,362.07a14.47,14.47,0,0,0,13.07,0L369.6,243.58c3.6-2.08,3.6-5.46,0-7.54L257.4,171.27a14.51,14.51,0,0,0-13.06,0L39.11,289.76c-3.59,2.08-3.59,5.47,0,7.55Z"/><path class="cls-5" d="M251.27,169.74a13.3,13.3,0,0,1,6.13,1.53L369.6,236c3.6,2.08,3.6,5.46,0,7.54l-22.24,12.84-96.09-61.36Z"/><path class="cls-7" d="M244.26,176.18a14.47,14.47,0,0,1,13.07,0l112.19,64.76a6.7,6.7,0,0,1,1.7,1.37,6.72,6.72,0,0,1-1.62,1.27L164.37,362.07a14.47,14.47,0,0,1-13.07,0L39.11,297.31A6.8,6.8,0,0,1,37.42,296,6.55,6.55,0,0,1,39,294.67Z"/><path class="cls-5" d="M328.59,205.75,308.7,194.27c-1.18-.69-1.24-1.76-.13-2.41a4.62,4.62,0,0,1,4.16.08l19.89,11.48c1.18.69,1.24,1.76.13,2.4A4.59,4.59,0,0,1,328.59,205.75Z"/><path class="cls-5" d="M294.44,186.06a1.22,1.22,0,0,1,0-2.32,4.41,4.41,0,0,1,4,0,1.22,1.22,0,0,1,0,2.32A4.41,4.41,0,0,1,294.44,186.06Z"/><path class="cls-5" d="M286.38,181.4a1.22,1.22,0,0,1,0-2.32,4.47,4.47,0,0,1,4,0,1.22,1.22,0,0,1,0,2.32A4.41,4.41,0,0,1,286.38,181.4Z"/><path class="cls-5" d="M350.87,218.63a1.22,1.22,0,0,1,0-2.32,4.45,4.45,0,0,1,4,0,1.22,1.22,0,0,1,0,2.32A4.39,4.39,0,0,1,350.87,218.63Z"/><path class="cls-5" d="M342.81,214a1.22,1.22,0,0,1,0-2.32,4.47,4.47,0,0,1,4,0,1.22,1.22,0,0,1,0,2.32A4.41,4.41,0,0,1,342.81,214Z"/></g><g id="Mail_Notification" data-name="Mail Notification"><path class="cls-8" d="M146.29,329v.43a2.43,2.43,0,0,0,1.09,1.89l23.35,13.47a2.37,2.37,0,0,0,2.17,0l38.66-22.32a2.4,2.4,0,0,0,1.09-1.88v-.43a2.41,2.41,0,0,0-1.09-1.89l-23.34-13.48a2.39,2.39,0,0,0-2.18,0l-38.66,22.32A2.41,2.41,0,0,0,146.29,329Z"/><path class="cls-8" d="M146.29,329v.43a2.43,2.43,0,0,0,1.09,1.89l23.35,13.47a2.37,2.37,0,0,0,2.17,0l38.66-22.32a2.4,2.4,0,0,0,1.09-1.88v-.43a2.41,2.41,0,0,0-1.09-1.89l-23.34-13.48a2.39,2.39,0,0,0-2.18,0l-38.66,22.32A2.41,2.41,0,0,0,146.29,329Z"/><path class="cls-9" d="M211.56,318.25l-23.34-13.48a2.39,2.39,0,0,0-2.18,0L171.81,313v32h0a2.15,2.15,0,0,0,1.09-.26l38.66-22.32a2.4,2.4,0,0,0,1.09-1.88v-.43A2.41,2.41,0,0,0,211.56,318.25Z"/><path class="cls-10" d="M211.56,318.25l-23.34-13.48a2.39,2.39,0,0,0-2.18,0L171.81,313v32h0a2.15,2.15,0,0,0,1.09-.26l38.66-22.32a2.4,2.4,0,0,0,1.09-1.88v-.43A2.41,2.41,0,0,0,211.56,318.25Z"/><path class="cls-9" d="M171.81,313l-24.43,14.11a2.41,2.41,0,0,0-1.09,1.89v.43a2.43,2.43,0,0,0,1.09,1.89l23.35,13.47a2.13,2.13,0,0,0,1.08.26h0Z"/><path class="cls-11" d="M171.81,313l-24.43,14.11a2.41,2.41,0,0,0-1.09,1.89v.43a2.43,2.43,0,0,0,1.09,1.89l23.35,13.47a2.13,2.13,0,0,0,1.08.26h0Z"/><path class="cls-8" d="M167,339.67l-19.61-11.32a.67.67,0,0,1,0-1.26L186,304.77a2.39,2.39,0,0,1,2.18,0l23.34,13.48a.67.67,0,0,1,0,1.26l-6.41,3.7-2.25,1.3-30,17.32a2.44,2.44,0,0,1-2.17,0l-1.91-1.1Z"/><path class="cls-8" d="M167,339.67l-19.61-11.32a.67.67,0,0,1,0-1.26L186,304.77a2.39,2.39,0,0,1,2.18,0l23.34,13.48a.67.67,0,0,1,0,1.26l-6.41,3.7-2.25,1.3-30,17.32a2.44,2.44,0,0,1-2.17,0l-1.91-1.1Z"/><path class="cls-12" d="M184.79,320.86l26.77-2.61L185,319.75l3.2-15a2.32,2.32,0,0,0-1.19-.25l-5,20.25-35.08,2.9a.73.73,0,0,0,.44.68l28.33-1.65-3.9,15.39,5-15.45h0l4.84-.28a2.63,2.63,0,0,0,1.6-.67h0a2.59,2.59,0,0,0,.82-1.41Z"/><path class="cls-8" d="M155.31,327,182,324.77l1-3.83.53-2.13L187,304.52a2.14,2.14,0,0,0-1,.25l-19.33,11.16-19.33,11.16a.78.78,0,0,0-.44.58l5.36-.45Z"/><path class="cls-1" d="M182.71,301.58a9.77,9.77,0,0,1,8.84,0c2.44,1.4,2.44,3.69,0,5.1a9.77,9.77,0,0,1-8.84,0C180.27,305.27,180.27,303,182.71,301.58Z"/><path class="cls-3" d="M184,305a.3.3,0,0,1-.18-.07.1.1,0,0,1-.05-.12l.36-1.61a1.27,1.27,0,0,0,0-.14.27.27,0,0,1,.14-.14l.89-.52a.42.42,0,0,1,.4,0l4.73,2.73a.12.12,0,0,1,.08.12.12.12,0,0,1-.08.11l-1,.56a.4.4,0,0,1-.2,0,.38.38,0,0,1-.19,0L185.81,304l-.21.88a.15.15,0,0,1-.1.11.39.39,0,0,1-.21,0Z"/></g><g id="Notification"><path class="cls-8" d="M227.61,311.94l-26.27-15.16c-.6-.35-.6-.91,0-1.25l95.32-55a2.44,2.44,0,0,1,2.17,0l26.27,15.17c.6.34.6.9,0,1.25l-95.33,55A2.35,2.35,0,0,1,227.61,311.94Z"/><path class="cls-7" d="M222.56,294.81a.55.55,0,0,1-.28.07h-.21l-5.46-.62,3.24,1.87a.13.13,0,0,1,0,.24l-.64.37a.46.46,0,0,1-.21.05.41.41,0,0,1-.21-.05l-5.07-2.93a.13.13,0,0,1,0-.24l.54-.32a.6.6,0,0,1,.28-.08h.21l5.46.62L217,291.93a.14.14,0,0,1-.09-.12c0-.05,0-.09.09-.13l.64-.36a.33.33,0,0,1,.21-.05.36.36,0,0,1,.21.05l5.07,2.92c.06,0,.09.08.09.13a.15.15,0,0,1-.09.12Z"/><path class="cls-7" d="M222.23,292.64a2.65,2.65,0,0,1-.69-.55,1.17,1.17,0,0,1-.29-.62.87.87,0,0,1,.15-.61,1.83,1.83,0,0,1,.63-.55,3.61,3.61,0,0,1,1-.37,4.08,4.08,0,0,1,1-.1,4.33,4.33,0,0,1,1,.14,3.93,3.93,0,0,1,.91.36l.35.21a.13.13,0,0,1,0,.24l-2.62,1.51a1.32,1.32,0,0,0,.39.15,1.55,1.55,0,0,0,.43,0,2.26,2.26,0,0,0,.44-.08,2.19,2.19,0,0,0,.38-.17,1.52,1.52,0,0,0,.36-.26.6.6,0,0,0,.13-.23.32.32,0,0,1,.05-.13.38.38,0,0,1,.13-.1l.63-.36a.33.33,0,0,1,.21-.05.28.28,0,0,1,.21.05.41.41,0,0,1,.16.23.65.65,0,0,1,0,.39,1.56,1.56,0,0,1-.28.49,2.48,2.48,0,0,1-.66.51,3.13,3.13,0,0,1-1,.37,3.64,3.64,0,0,1-1,.1,4.25,4.25,0,0,1-1.06-.16A4.34,4.34,0,0,1,222.23,292.64Zm.75-1.79a1.22,1.22,0,0,0-.33.26.48.48,0,0,0-.09.26.38.38,0,0,0,.06.23.79.79,0,0,0,.17.19l1.78-1-.31-.1a1.1,1.1,0,0,0-.37-.06,2.37,2.37,0,0,0-.44,0A1.7,1.7,0,0,0,223,290.85Z"/><path class="cls-7" d="M231.2,287.92l-1.54-1.71-.06-.11s0-.08.09-.12l.6-.35a.46.46,0,0,1,.21-.05.41.41,0,0,1,.21.05l0,0,2.43,2.77a.37.37,0,0,1,.07.12s0,.08-.1.13l-.6.34a.33.33,0,0,1-.21.05l-.21,0-2.85-.77,1.33,1.65a.67.67,0,0,1,.06.12s0,.08-.09.12l-.6.35a.36.36,0,0,1-.22.05l-.2,0-4.81-1.4-.06,0a.13.13,0,0,1,0-.24l.6-.35a.33.33,0,0,1,.21-.05l.2,0,2.95.88-1.49-1.73a.13.13,0,0,1,0-.11c0-.05,0-.09.08-.12l.59-.35A.46.46,0,0,1,228,287l.2,0Z"/><path class="cls-7" d="M234.75,285.41a2.37,2.37,0,0,1-.7-.55,1.14,1.14,0,0,1-.29-.61.92.92,0,0,1,.16-.61,1.75,1.75,0,0,1,.63-.56,3.36,3.36,0,0,1,1-.37,4.53,4.53,0,0,1,1-.1,5,5,0,0,1,1,.14,3.33,3.33,0,0,1,.9.37l.36.2a.12.12,0,0,1,.08.12.15.15,0,0,1-.08.13l-2.62,1.51a1.07,1.07,0,0,0,.39.14,2,2,0,0,0,.43,0,1.57,1.57,0,0,0,.43-.09,1.71,1.71,0,0,0,.39-.17,1.37,1.37,0,0,0,.35-.26.5.5,0,0,0,.13-.23.81.81,0,0,1,.06-.13.44.44,0,0,1,.12-.1l.63-.36a.48.48,0,0,1,.22,0,.46.46,0,0,1,.21,0,.52.52,0,0,1,.16.23.78.78,0,0,1,0,.4,1.22,1.22,0,0,1-.28.48,2.27,2.27,0,0,1-.65.52,3.42,3.42,0,0,1-.95.37,4,4,0,0,1-1,.1,4.26,4.26,0,0,1-1.06-.17A3.93,3.93,0,0,1,234.75,285.41Zm.74-1.79a1,1,0,0,0-.32.27.44.44,0,0,0-.1.25.42.42,0,0,0,.07.24.73.73,0,0,0,.17.18l1.77-1a1.72,1.72,0,0,0-.3-.11,1.52,1.52,0,0,0-.38-.05,1.64,1.64,0,0,0-.43,0A2.34,2.34,0,0,0,235.49,283.62Z"/><path class="cls-7" d="M238.83,281.16a.67.67,0,0,1,.1-.47,1.3,1.3,0,0,1,.44-.39,2.83,2.83,0,0,1,1-.36,3.58,3.58,0,0,1,1,0,.54.54,0,0,1,0-.31.88.88,0,0,1,.1-.3,1.42,1.42,0,0,1,.22-.28,2.49,2.49,0,0,1,.31-.23,3,3,0,0,1,.9-.34,3.28,3.28,0,0,1,.88-.05,3.41,3.41,0,0,1,.84.19,4.64,4.64,0,0,1,.78.36l2.11,1.22a.12.12,0,0,1,0,.24l-.6.35a.41.41,0,0,1-.21.05.46.46,0,0,1-.21-.05l-2.07-1.2a2,2,0,0,0-1-.31,1.52,1.52,0,0,0-.78.21.56.56,0,0,0-.34.43c0,.16.15.34.48.55l2.11,1.22a.13.13,0,0,1,0,.24l-.6.35a.65.65,0,0,1-.21.05.47.47,0,0,1-.21-.06l-2.07-1.19a2,2,0,0,0-.95-.31,1.48,1.48,0,0,0-.79.2.59.59,0,0,0-.33.45c0,.17.16.35.51.56l2.07,1.19c.06,0,.09.08.09.13s0,.08-.09.12l-.59.34a.46.46,0,0,1-.21.05.38.38,0,0,1-.22-.05l-3.65-2.11a.12.12,0,0,1,0-.24l.59-.35a.46.46,0,0,1,.21-.05.48.48,0,0,1,.22.05Z"/><path class="cls-7" d="M245.63,277.93a.74.74,0,0,1-.21-.28.64.64,0,0,1,0-.39,1,1,0,0,1,.24-.45,2.05,2.05,0,0,1,.6-.47,3.72,3.72,0,0,1,.82-.36,3.76,3.76,0,0,1,.87-.14,3.22,3.22,0,0,1,.87.09,3.16,3.16,0,0,1,.83.34l2.31,1.33c.06,0,.09.08.09.13s0,.08-.09.12l-.59.34a.38.38,0,0,1-.22.05.36.36,0,0,1-.21-.05l-.26-.15a.62.62,0,0,1-.08.5,1.6,1.6,0,0,1-.63.55,3.28,3.28,0,0,1-.7.3,3.4,3.4,0,0,1-.7.11,2.84,2.84,0,0,1-.66-.07,2.06,2.06,0,0,1-.59-.22c-.36-.21-.52-.45-.47-.71a1.6,1.6,0,0,1,.62-.84l1.06-.86a1,1,0,0,0-.67-.14,1.78,1.78,0,0,0-.66.22.7.7,0,0,0-.25.21.48.48,0,0,0-.07.21.16.16,0,0,1,0,.12.22.22,0,0,1-.1.09l-.73.42a.41.41,0,0,1-.18.05A.2.2,0,0,1,245.63,277.93Zm3.52.53a1.39,1.39,0,0,0,.4-.32.62.62,0,0,0,.15-.32.35.35,0,0,0-.07-.28.62.62,0,0,0-.25-.23l-.08-.05-.87.73a.84.84,0,0,0-.31.36c0,.09,0,.18.15.25a.61.61,0,0,0,.41,0A2.07,2.07,0,0,0,249.15,278.46Z"/><path class="cls-7" d="M248.46,273.42a.38.38,0,0,1,.22-.05.36.36,0,0,1,.21.05l.61.35a.13.13,0,0,1,0,.24l-.67.39a.38.38,0,0,1-.22.05.36.36,0,0,1-.21-.05l-.61-.35a.12.12,0,0,1,0-.24Zm5.54,3a.14.14,0,0,1,0,.25l-.6.34a.46.46,0,0,1-.21.05A.41.41,0,0,1,253,277l-3.66-2.11a.14.14,0,0,1-.09-.12s0-.09.09-.13l.6-.34a.41.41,0,0,1,.21-.05.46.46,0,0,1,.21.05Z"/><path class="cls-7" d="M256.1,275.2a.14.14,0,0,1,.09.12.15.15,0,0,1-.09.12l-.6.35a.47.47,0,0,1-.42,0l-5.15-3a.13.13,0,0,1,0-.24l.6-.34a.47.47,0,0,1,.42,0Z"/><path class="cls-7" d="M225,299l77.77-44.9a3.5,3.5,0,0,1,3.13-.19c.77.44.62,1.25-.34,1.8l-77.78,44.91a3.47,3.47,0,0,1-3.12.19C223.86,300.39,224,299.58,225,299Z"/><path class="cls-7" d="M230.43,302.19l77.77-44.91a3.5,3.5,0,0,1,3.13-.19c.77.44.62,1.25-.34,1.81l-77.78,44.9a3.44,3.44,0,0,1-3.12.19C229.32,303.55,229.47,302.74,230.43,302.19Z"/></g></g><g id="Character_Envelope" data-name="Character Envelope"><polygon id="Shadow" class="cls-13" points="114.95 331.33 74.33 307.88 256.3 202.82 297.75 225.79 114.95 331.33"/><g id="Back"><path class="cls-1" d="M104,185.12,277,85.2l6.93,4a7.22,7.22,0,0,1,3.26,5.64V222.5a7.24,7.24,0,0,1-3.26,5.64L117.4,324.29a7.18,7.18,0,0,1-6.51,0l-3.67-2.11a7.24,7.24,0,0,1-3.25-5.64Z"/><path class="cls-11" d="M104,185.12,277,85.2l6.93,4a7.22,7.22,0,0,1,3.26,5.64V222.5a7.24,7.24,0,0,1-3.26,5.64L117.4,324.29a7.18,7.18,0,0,1-6.51,0l-3.67-2.11a7.24,7.24,0,0,1-3.25-5.64Z"/><path class="cls-1" d="M276.07,74l.71-.39L274.09,72h0a4.74,4.74,0,0,0-.72-.34L197.21,43.47a5.25,5.25,0,0,0-5.85,1.86L106.17,169.75a14.65,14.65,0,0,0-2.2,7.1v8.27l2.64,1.53L277,85.2V76.94A5.55,5.55,0,0,0,276.07,74Z"/><path class="cls-10" d="M194.89,45.93a4.13,4.13,0,0,0-.88.94L108.8,171.28a13.32,13.32,0,0,0-1.58,3.56l-2.65-1.53a18.37,18.37,0,0,1,.69-1.89s0,0,0,0c.11-.26.23-.5.36-.75,0,0,0-.08.07-.12a6,6,0,0,1,.45-.75L191.36,45.34a3.6,3.6,0,0,1,.43-.52,5.89,5.89,0,0,1,.45-.42Z"/><path class="cls-10" d="M276.75,73.58a4.43,4.43,0,0,0-.73-.35L199.85,45a5.23,5.23,0,0,0-5,.93l-2.65-1.53a5.28,5.28,0,0,1,5-.93l76.16,28.22a4.34,4.34,0,0,1,.72.35Z"/><g class="cls-14"><path d="M105.71,170.5a8.77,8.77,0,0,1,.46-.75A8.77,8.77,0,0,0,105.71,170.5Z"/><path d="M191.79,44.82a4.58,4.58,0,0,1,.46-.42A4.58,4.58,0,0,0,191.79,44.82Z"/><path d="M104.57,173.31a16.29,16.29,0,0,1,.69-1.89A18.37,18.37,0,0,0,104.57,173.31Z"/><path d="M105.28,171.37c.12-.26.24-.51.37-.75C105.52,170.86,105.4,171.11,105.28,171.37Z"/><path class="cls-11" d="M105.26,171.42l0,0Z"/><polygon class="cls-11" points="104.57 173.31 104.57 173.31 104.57 173.31 104.57 173.31"/><polygon class="cls-11" points="192.25 44.4 192.25 44.4 192.25 44.4 192.25 44.4"/><path class="cls-11" d="M105.65,170.62l.06-.12Z"/><path class="cls-11" d="M191.36,45.33a5.27,5.27,0,0,1,.43-.51A4.15,4.15,0,0,0,191.36,45.33Z"/></g><path class="cls-1" d="M194,46.86,108.81,171.28a14.72,14.72,0,0,0-2.2,7.11v8.26L279.67,86.73V78.47A6,6,0,0,0,276,73.23L199.85,45A5.27,5.27,0,0,0,194,46.86Z"/><path class="cls-1" d="M279.67,78.47a5.56,5.56,0,0,0-.93-2.91L107.22,174.84l0,0a13.34,13.34,0,0,0-.59,3.53v8.26L279.67,86.73Z"/></g><g id="Paper"><path class="cls-15" d="M272.27,43.4a2,2,0,0,0-.81-1.81l-5.28-3.05a2,2,0,0,0-2,.2L122.25,120.69a6.17,6.17,0,0,0-2.81,4.86v170a2,2,0,0,0,.82,1.82l5.27,3a2,2,0,0,0,2-.19l142-82a6.22,6.22,0,0,0,2.8-4.87Z"/><path class="cls-12" d="M272.27,43.4a2,2,0,0,0-.81-1.81l-5.28-3.05a2,2,0,0,0-2,.2L122.25,120.69a6.17,6.17,0,0,0-2.81,4.86v170a2,2,0,0,0,.82,1.82l5.27,3a2,2,0,0,0,2-.19l142-82a6.22,6.22,0,0,0,2.8-4.87Z"/><path class="cls-15" d="M127.52,300.22l142-82a6.22,6.22,0,0,0,2.8-4.87V43.4c0-1.79-1.25-2.51-2.81-1.62l-141.94,82a6.23,6.23,0,0,0-2.81,4.87v170C124.71,300.39,126,301.11,127.52,300.22Z"/><path class="cls-15" d="M127.52,300.22l142-82a6.22,6.22,0,0,0,2.8-4.87V43.4c0-1.79-1.25-2.51-2.81-1.62l-141.94,82a6.23,6.23,0,0,0-2.81,4.87v170C124.71,300.39,126,301.11,127.52,300.22Z"/><path class="cls-12" d="M124.7,298.59a2.16,2.16,0,0,0,.66,1.72l-5.09-2.94a2,2,0,0,1-.83-1.81v-170a5.58,5.58,0,0,1,.83-2.76l5.26,3a5.66,5.66,0,0,0-.83,2.78Z"/><path class="cls-12" d="M124.7,298.59a2.16,2.16,0,0,0,.66,1.72l-5.09-2.94a2,2,0,0,1-.83-1.81v-170a5.58,5.58,0,0,1,.83-2.76l5.26,3a5.66,5.66,0,0,0-.83,2.78Z"/><path class="cls-16" d="M124.7,298.59a2.16,2.16,0,0,0,.66,1.72l-5.09-2.94a2,2,0,0,1-.83-1.81v-170a5.58,5.58,0,0,1,.83-2.76l5.26,3a5.66,5.66,0,0,0-.83,2.78Z"/></g><g id="Character"><path class="cls-4" d="M176.51,170.11c-.63,15.82.44,49.71.44,49.71s16.76,5.06,28.16,3.17,35.77-19.15,35.77-19.15l-4.07-36.68Z"/><path class="cls-5" d="M215.43,219.24l2.72-25.83c10.68-6.37,14.16-15.19,14.16-15.19-9.72,12.73-19.87,10.67-19.87,10.67v31.72C213.42,220.19,214.41,219.73,215.43,219.24Z"/><path class="cls-6" d="M243.51,122.46c2.71-13.76,3.94-32-8-35.41-3.12-.87-11.06-.27-11.06-.27l-12.91.65c-7.19.91-17.28,2.34-19.92,3-6.93,1.71-9,13-12.1,38.14-2,15.72-3.61,28-3.61,43.29,12.69,11.38,52.33,6.9,61.35-.5C237.61,154,238.55,147.58,243.51,122.46Z"/><path class="cls-4" d="M209.32,82.74c-.13,2.51,2.77,6.75,7.19,9.73s8.24,4.18,8.73,5.43c-2.1.39-4,1.43-5.56,5-1.5,3.44-1.48,3.55-6.59,0s-9.68-11.71-9.67-14.43,4-8,6-7.53Z"/><path class="cls-4" d="M225.24,97.9c1.49-1.64,2.91-5.75,3.09-7.52s.66-6.45.66-6.45a3.48,3.48,0,0,1,1.77,1.15c.55.83,3.27,6.45,3.18,9.59s-.83,7.38-1.89,9.17-1.77-1.37-2.46-2.59C228.69,99.66,227.45,97.94,225.24,97.9Z"/><path class="cls-4" d="M223.22,101.5s.24,11.33-.8,17.36a18.53,18.53,0,0,0,6.74-.18s-1.73,2.13-8.06,1.15C221.1,119.83,223,108,223.22,101.5Z"/><path class="cls-5" d="M250.05,49.16a18,18,0,0,0-35.9-1.36L206,42a6.38,6.38,0,0,0-5.26,1.93c-2.23,2.36-.86,9.61,2.08,16.68,0,0,2.95,12.92,4.08,15a5.88,5.88,0,0,0,3.44,2.68L210,70.46l32.68-2.35-3.23-2.3A18,18,0,0,0,250.05,49.16Z"/><path class="cls-17" d="M209.56,61.1c-1,.64-2-1.54-3.85-2.66-1.6-1-5.19-2.63-7.56,1.34-2.55,4.27,2.08,10.17,5.32,11.39,4.8,1.8,6.52-2,6.52-2l-1,20c6.53,11.9,25.93,11.14,19.33,1.17l.8-7.72s5.16.71,7.67.28c4.18-.7,6.76-4,8-8.59,1.93-7.31,2.62-13.2.67-27.48-2.12-15.66-20.37-15.55-30.13-9.21S209.56,61.1,209.56,61.1Z"/><path class="cls-5" d="M249.43,32.25a6.77,6.77,0,0,0-4.42-.51,5.33,5.33,0,0,0-3.19-5.37,6.2,6.2,0,0,0-6.76.9c.44-1.59-1-3.21-2.62-3.56a8.61,8.61,0,0,0-4.81.79c-2.3.88-4.56,1.86-6.89,2.64-4.1,1.37-8.47,2.15-12.19,4.38a7.59,7.59,0,0,0-2.32,2,6.49,6.49,0,0,0-1,4.07,8.14,8.14,0,0,0,.2,1.4,3.63,3.63,0,0,0-1-.76,3.47,3.47,0,0,0-4.75,1.65l6.19,3.2c-.16,1.25-.31,2.49-.44,3.74-.33,3.3-1,7.15-.22,10.43a2.4,2.4,0,0,0,.4,1.1,19.54,19.54,0,0,1,3.22,3.13c.48.58,1.05,1.52,1.83,1.75a1.86,1.86,0,0,0,2.14-1,3.59,3.59,0,0,0,.07-1.46l-.6-6.1a3.36,3.36,0,0,1,.09-1.61,4.64,4.64,0,0,1,1.5-1.59,7,7,0,0,0,2.42-4.88,7.81,7.81,0,0,1,.17-1.75c.13-.43.47-1.1,1-1.1,1,0,6.13,1.12,7.43,1.3,6.78.93,14.06,1.11,20-2.22,2.33-1.29,6.26-4,6.66-6.86A3.83,3.83,0,0,0,249.43,32.25Z"/><path class="cls-18" d="M229.13,82.66s-9.37-1.74-12.67-3.43a10.81,10.81,0,0,1-4.58-4.4,14.82,14.82,0,0,0,2.65,5.23c2.43,3,14.34,5.09,14.34,5.09Z"/><path class="cls-5" d="M228.73,59.42a1.76,1.76,0,1,1-1.78-1.8A1.79,1.79,0,0,1,228.73,59.42Z"/><path class="cls-5" d="M225.31,52.88l-4.11,2a2.41,2.41,0,0,1,1.1-3.14A2.23,2.23,0,0,1,225.31,52.88Z"/><path class="cls-19" d="M225.36,70.38l7.44,2.67a3.89,3.89,0,0,1-5,2.53A4.15,4.15,0,0,1,225.36,70.38Z"/><path class="cls-18" d="M230.06,75.67a3.87,3.87,0,0,0-4.34-3.31,3.72,3.72,0,0,0-.48.11,4.06,4.06,0,0,0,2.57,3.11A3.77,3.77,0,0,0,230.06,75.67Z"/><path class="cls-5" d="M244.82,54.24l-4-2.08a2.16,2.16,0,0,1,3-.93A2.28,2.28,0,0,1,244.82,54.24Z"/><path class="cls-5" d="M242.8,59.13A1.76,1.76,0,1,1,241,57.32,1.79,1.79,0,0,1,242.8,59.13Z"/><polygon class="cls-18" points="233.85 58.03 234.2 69.39 240.89 67.83 233.85 58.03"/></g><g id="Front"><path class="cls-1" d="M282.81,224.2a1.35,1.35,0,0,1-.18.26l-72.11-22.87a12.44,12.44,0,0,0-15.59,4.8L117.84,321,115,322.62l0,0a2.32,2.32,0,0,1-2.21.24L192,204.77a12.47,12.47,0,0,1,15.6-4.81Z"/><path class="cls-1" d="M187.83,217.64l.18-.16L117.83,321,115,322.63h0a2.34,2.34,0,0,1-2.2.25L185.06,216Z"/><path class="cls-20" d="M282.82,224.2a1.1,1.1,0,0,1-.18.26l-72.13-22.87a12.41,12.41,0,0,0-15.58,4.8l-2.85-1.66A12.44,12.44,0,0,1,207.64,200Z"/><path class="cls-1" d="M287.14,94h0c-.15-.93-.65-1.19-1.28-.75a3.61,3.61,0,0,0-.83.86l-.37.5-71.16,108.2-10.63,14.8a6,6,0,0,1-5.85,2.19l-9.17-2.18-70-25.78a3.61,3.61,0,0,0-1.42-.05,2.43,2.43,0,0,0-.54.17l2.64-1.52,67.14,24.6,8.84,3.15a6,6,0,0,0,5.85-2.19l10.62-14.79,71.52-108.7a2.81,2.81,0,0,1,.81-.74l-6.19-3.57,2.59-1.49L284,89.2A7.36,7.36,0,0,1,287.14,94Z"/><path class="cls-1" d="M213.48,202.82l-10.62,14.8a6.08,6.08,0,0,1-5.85,2.2l-9.18-2.18.18-.16.45-.7,6,1.43a6,6,0,0,0,5.85-2.19l10.53-14.64Z"/><path class="cls-21" d="M284,89.19l-4.28-2.46-2.6,1.49,6.19,3.57h0a2.87,2.87,0,0,0-.81.74L210.94,201.22l-.1.15h0l2.64,1.44L284.65,94.63l.36-.51a4,4,0,0,1,.83-.86c.64-.44,1.13-.18,1.29.76h0A7.41,7.41,0,0,0,284,89.19Z"/><path class="cls-1" d="M119.24,193.94,104,185.12V316.54a7.24,7.24,0,0,0,3.25,5.64l3.67,2.11a7.18,7.18,0,0,0,6.51,0l1.84-1.05Z"/><path class="cls-10" d="M119.24,193.94,104,185.12V316.54a7.24,7.24,0,0,0,3.25,5.64l3.67,2.11a7.18,7.18,0,0,0,6.51,0l1.84-1.05Z"/><path class="cls-1" d="M287.21,94.84V222.5a6.64,6.64,0,0,1-1,3.29,7.09,7.09,0,0,1-1.91,2.14l-.13.07c-.08.05-.13.1-.21.14L117.41,324.28l0,0a2.34,2.34,0,0,1-2.21.26,2,2,0,0,1-1-1.56,5.28,5.28,0,0,1,0-.58V194.74a2.83,2.83,0,0,1,3.66-2.88l70,25.78,9.17,2.18a6,6,0,0,0,5.85-2.19l10.63-14.8,71.16-108.2.37-.5C286.22,92.45,287.21,92.76,287.21,94.84Z"/><path class="cls-1" d="M284,228.14a.7.7,0,0,0,.21-.14l.13-.07a6.89,6.89,0,0,0,1.9-2.13,6.6,6.6,0,0,0,1-3.24l-73.71-19.73,49.36,37.49Z"/><path class="cls-22" d="M284,228.14a.7.7,0,0,0,.21-.14l.13-.07a6.89,6.89,0,0,0,1.9-2.13,6.6,6.6,0,0,0,1-3.24l-73.71-19.73,49.36,37.49Z"/><path class="cls-23" d="M114.15,322.41a2.23,2.23,0,0,0,1,2.14,2.3,2.3,0,0,0,2.21-.25h0l57.34-33.1,13.09-73.55L114.15,320.29Z"/><path class="cls-24" d="M194.9,206.38,115.16,324.55a2.24,2.24,0,0,1-1-2.14v-2.12l77.9-115.52s0,0,0,0Z"/><path class="cls-1" d="M286.19,225.8a6.89,6.89,0,0,1-1.9,2.13l-.13.07L117.41,324.29h0a2.3,2.3,0,0,1-2.21.25l79.75-118.19a12.53,12.53,0,0,1,15.68-4.82Z"/><path class="cls-10" d="M104.57,173.31l2.65,1.53a12.72,12.72,0,0,0-.61,3.55v8.25L104,185.11v-8.26A13.1,13.1,0,0,1,104.57,173.31Z"/><polygon class="cls-1" points="118.49 190.46 115.85 191.98 113.18 190.44 106.6 186.65 109.16 185.13 118.49 190.46"/><path class="cls-25" d="M118.61,190.51l-9.45-5.38-2.56,1.52,6.58,3.79,2.67,1.54h0a2.24,2.24,0,0,1,.5-.16,3.49,3.49,0,0,1,1.43.05l5.32,2,61.13,22.5,1-1.41Z"/></g><g id="Arm"><path class="cls-17" d="M191.59,90.42c-8.48.61-14.3,2.63-19.77,15.77-3.53,8.49-17.39,39-18.73,44.05-1.58,5.93-5.12,51-5.12,51l8.1,3s-2.78,9.69-5.12,15.22c-2.7,6.39,10.49,5,14.72-.76s7.12-13.56,4.81-16.29a37.86,37.86,0,0,0-6.43-5.94l8.87-40.18,18.59-39.51S200.83,97.35,191.59,90.42Z"/><path class="cls-18" d="M164.05,196.47a17.43,17.43,0,0,0-8.21-2.35,15.86,15.86,0,0,1,8.6,0Z"/><path class="cls-4" d="M193.52,90c-4.77,0-13.66-.25-19.42,10.15s-13.9,30.17-13.9,30.17,3.39,8.32,21.51,10.06l13.88-29.53S199,97.33,193.52,90Z"/></g><g id="Arm-2" data-name="Arm"><path class="cls-17" d="M255,96.85c7.16,5.64,18.79,14.52,24.44,18.07,4.27-5.17,12.13-15.62,14-17.91,2.43-2.91,10.08-7.67,10.08-7.67l2.89,11.6s-14.51,26.77-19.77,31.73c-5.54,5.22-9.55,3.06-20.38-1.91-10.23-4.69-21.34-10.5-21.34-10.5,2.2-19.46.71-30-8.59-33.28C242.6,87.75,249,92.12,255,96.85Z"/><path class="cls-4" d="M273.69,111c-3.74,1-11.48,12-10.06,19l-19.71-9.74c2.39-13.43,2.9-30-8.44-33.21a15.78,15.78,0,0,0-3.32-.42h0c5.65-.56,9.34-.39,15.26,4.06S273.69,111,273.69,111Z"/><path class="cls-18" d="M279.43,114.92c-2.83,2.48-3.74,6.94-4.29,8.71a15.58,15.58,0,0,1,2.66-9.77Z"/><path class="cls-4" d="M306.86,76.37l6.75-4.1s.78,36.45.8,37.63a4,4,0,0,0,1.42,2.34l-6.75,4.1a4.05,4.05,0,0,1-1.42-2.34C307.64,112.81,306.86,76.37,306.86,76.37Z"/><path class="cls-17" d="M313.94,87.46s1.94.46,2.68,3.47,1.11,8.76-.62,10.65-4.08,2.72-5.65,2c-2.94-1.27-2-7.22.31-8.6,3.75-2.19,3.3-4.61,3.3-4.61Z"/><path class="cls-6" d="M298.55,76.48l3,3.61.53,25.7-3,5,10.05,5.53a3.73,3.73,0,0,1-1.42-2.34L307,81.1Z"/><polygon class="cls-26" points="299.03 110.81 299.07 112.39 309.11 117.91 309.08 116.33 299.03 110.81"/><polygon class="cls-26" points="309.11 117.91 315.87 113.82 315.83 112.24 309.08 116.33 309.11 117.91"/><polygon class="cls-25" points="309.11 117.91 315.87 113.82 315.83 112.24 309.08 116.33 309.11 117.91"/><path class="cls-15" d="M300.51,58.64h0c-1.31-.33-2.83.22-4.24,1.73l0,.06a14.13,14.13,0,0,0-2.89,12.47l0,.07c.62,2,1.78,3.2,3.14,3.44h0l5.84,1.4L305.91,60Z"/><path class="cls-15" d="M300.51,58.64h0c-1.31-.33-2.83.22-4.24,1.73l0,.06a14.13,14.13,0,0,0-2.89,12.47l0,.07c.62,2,1.78,3.2,3.14,3.44h0l5.84,1.4L305.91,60Z"/><path class="cls-16" d="M296.49,76.42h0l5.84,1.4,1.19-5.93-10.63-2.46a11.16,11.16,0,0,0,.44,3.47l0,.07C294,75,295.13,76.18,296.49,76.42Z"/><path class="cls-27" d="M312.35,59.15h0c-1.48-.34-3.16.21-4.76,1.7-.17.15-.33.32-.5.49s-.38.43-.57.66a13.76,13.76,0,0,0-.86,1.21,16.34,16.34,0,0,0-1.29,2.5,19.3,19.3,0,0,0-1.45,7.65,13.38,13.38,0,0,0,.55,3.63c.72,2.39,2.06,3.83,3.64,4.25L301.55,80h0a6.41,6.41,0,0,1-4.4-4.42,13.4,13.4,0,0,1-.55-3.47,19.41,19.41,0,0,1,1.45-7.81,15.53,15.53,0,0,1,1.3-2.5,11.94,11.94,0,0,1,.86-1.21c.18-.23.37-.45.56-.66s.34-.34.51-.49a6.37,6.37,0,0,1,5.39-1.55h0l.15,0,.2.05Z"/><path class="cls-25" d="M301.55,80h0a6.41,6.41,0,0,1-4.4-4.42,13.4,13.4,0,0,1-.55-3.47l6.31,1.3a13.38,13.38,0,0,0,.55,3.63c.72,2.39,2.06,3.83,3.64,4.25Z"/><path class="cls-28" d="M316.12,63.44c1.5,4.9-.13,11.9-3.62,15.64-1.76,1.88-3.66,2.58-5.3,2.18l-.09,0c-1.58-.42-2.92-1.86-3.64-4.25-1.5-4.9.12-11.9,3.62-15.65,1.74-1.86,3.63-2.57,5.26-2.19S315.37,61,316.12,63.44Z"/><path class="cls-15" d="M316.12,63.44c1.5,4.9-.13,11.9-3.62,15.64-1.76,1.88-3.66,2.58-5.3,2.18l-.09,0c-1.58-.42-2.92-1.86-3.64-4.25-1.5-4.9.12-11.9,3.62-15.65,1.74-1.86,3.63-2.57,5.26-2.19S315.37,61,316.12,63.44Z"/><path class="cls-15" d="M339.28,55s-6.53,6.34-9.66,19.82a55.52,55.52,0,0,0-1.19,7.35c-.83,9.16,1.15,14.69,1.15,14.69-4-4.95-8.69-9.93-14.84-12.95a76.77,76.77,0,0,0-7.39-3.13h0c-1.49-.35-2.72-1.72-3.39-3.92a14,14,0,0,1-.51-4.78,17.62,17.62,0,0,1,.46-3.21,15.78,15.78,0,0,1,3.56-7.15c1.57-1.69,3.27-2.38,4.77-2h0a77.85,77.85,0,0,0,8,.44C327.11,60.09,333.48,57.66,339.28,55Z"/><path class="cls-26" d="M339.28,55s-6.53,6.34-9.66,19.82a55.52,55.52,0,0,0-1.19,7.35c-.83,9.16,1.15,14.69,1.15,14.69-4-4.95-8.69-9.93-14.84-12.95a76.77,76.77,0,0,0-7.39-3.13h0c-1.49-.35-2.72-1.72-3.39-3.92a14,14,0,0,1-.51-4.78,17.62,17.62,0,0,1,.46-3.21,15.78,15.78,0,0,1,3.56-7.15c1.57-1.69,3.27-2.38,4.77-2h0a77.85,77.85,0,0,0,8,.44C327.11,60.09,333.48,57.66,339.28,55Z"/><path class="cls-16" d="M328.43,82.16c-.83,9.16,1.15,14.69,1.15,14.69-4-4.95-8.69-9.93-14.84-12.95a76.77,76.77,0,0,0-7.39-3.13h0c-1.49-.35-2.72-1.72-3.39-3.92a14,14,0,0,1-.51-4.78C310.22,73.21,321.37,75.74,328.43,82.16Z"/><path class="cls-27" d="M357.25,61.6a37.59,37.59,0,0,1,.64,17.14h0c-1.34,7.63-4.6,15.08-9.27,20.08-8.32,8.9-17.94,6.67-21.49-5a32.4,32.4,0,0,1-1.31-8.63,45.4,45.4,0,0,1,5.35-22.14c.5-.92,1-1.8,1.6-2.65.23-.36.48-.7.72-1h0c.35-.49.71-1,1.08-1.41s.78-.92,1.18-1.35C344.07,47.71,353.69,49.94,357.25,61.6Z"/><path class="cls-25" d="M357.89,78.74c-1.34,7.63-4.6,15.08-9.27,20.08-8.32,8.9-17.94,6.67-21.49-5a32.4,32.4,0,0,1-1.31-8.63h0c1.14,1.3,4.25,2.7,4.89.86a29,29,0,0,0,1.18,7.65c1,3.35,2.59,5.82,4.54,7.16a6.25,6.25,0,0,0,5.61.77,14.52,14.52,0,0,0,6.08-4.16c4-4.25,6.88-10.61,8.3-17.23C356.42,80.26,357.21,80.6,357.89,78.74Z"/><path class="cls-15" d="M356.2,62.63c1.57,5.14,1.53,11.51.22,17.63-1.42,6.62-4.33,13-8.3,17.23a14.52,14.52,0,0,1-6.08,4.16,6.25,6.25,0,0,1-5.61-.77c-1.95-1.34-3.52-3.81-4.54-7.16a29,29,0,0,1-1.18-7.65c0-1,0-2.07,0-3.12a44.17,44.17,0,0,1,.66-5.55c.08-.38.15-.76.23-1.13.13-.63.27-1.26.43-1.88a43.23,43.23,0,0,1,2.06-6.16l0-.07A38.52,38.52,0,0,1,336,64.4q.72-1.29,1.53-2.46c.22-.33.45-.65.69-1s.57-.74.87-1.1.58-.67.88-1a14.58,14.58,0,0,1,6.09-4.17C350.48,53.35,354.27,56.32,356.2,62.63Z"/><path class="cls-29" d="M356.2,62.63c1.57,5.14,1.53,11.51.22,17.63-1.42,6.62-4.33,13-8.3,17.23a14.52,14.52,0,0,1-6.08,4.16,6.25,6.25,0,0,1-5.61-.77c-1.95-1.34-3.52-3.81-4.54-7.16a29,29,0,0,1-1.18-7.65c0-1,0-2.07,0-3.12a44.17,44.17,0,0,1,.66-5.55c.08-.38.15-.76.23-1.13.13-.63.27-1.26.43-1.88a43.23,43.23,0,0,1,2.06-6.16l0-.07A38.52,38.52,0,0,1,336,64.4q.72-1.29,1.53-2.46c.22-.33.45-.65.69-1s.57-.74.87-1.1.58-.67.88-1a14.58,14.58,0,0,1,6.09-4.17C350.48,53.35,354.27,56.32,356.2,62.63Z"/><path class="cls-26" d="M341.54,70.23l-2.76,13.92c-2-.12-5.39-.28-8.07-.15,0-.35,0-.7,0-1a42.42,42.42,0,0,1,.67-5.55c.07-.38.14-.76.22-1.13.13-.63.27-1.26.43-1.88a43.23,43.23,0,0,1,2.06-6.16l0-.07c.12-.29.25-.58.38-.86A43.29,43.29,0,0,0,341.54,70.23Z"/><path class="cls-30" d="M341.54,70.23l-2.76,13.92c-2-.12-5.39-.28-8.07-.15,0-.35,0-.7,0-1a42.42,42.42,0,0,1,.67-5.55c.07-.38.14-.76.22-1.13.13-.63.27-1.26.43-1.88a43.23,43.23,0,0,1,2.06-6.16l0-.07c.12-.29.25-.58.38-.86A43.29,43.29,0,0,0,341.54,70.23Z"/><path class="cls-26" d="M339.3,84c-1.45.44-2.67-.47-3.27-2.43l0-.06a11.21,11.21,0,0,1,2.29-9.86l0,0a4.41,4.41,0,0,1,1.83-1.25c1.45-.44,2.67.47,3.27,2.43l0,.06a11.23,11.23,0,0,1-2.28,9.86l-.05,0A4.35,4.35,0,0,1,339.3,84Z"/><path class="cls-31" d="M339.3,84c-1.45.44-2.67-.47-3.27-2.43l0-.06a11.21,11.21,0,0,1,2.29-9.86l0,0a4.41,4.41,0,0,1,1.83-1.25c1.45-.44,2.67.47,3.27,2.43l0,.06a11.23,11.23,0,0,1-2.28,9.86l-.05,0A4.35,4.35,0,0,1,339.3,84Z"/><path class="cls-1" d="M335.94,48.13a1.49,1.49,0,0,1-1.88-1l-4.25-13.94a1.51,1.51,0,0,1,2.88-.88l4.25,13.94A1.51,1.51,0,0,1,335.94,48.13Z"/><path class="cls-1" d="M324.29,55.4a1.51,1.51,0,0,1-1.47-.34l-10.66-10a1.51,1.51,0,1,1,2.06-2.2l10.66,10A1.51,1.51,0,0,1,325,55,1.5,1.5,0,0,1,324.29,55.4Z"/><path class="cls-1" d="M331.57,126.62a1.57,1.57,0,0,1-.78,0,1.5,1.5,0,0,1-1.12-1.81l3.29-14.2a1.5,1.5,0,1,1,2.93.68l-3.29,14.2A1.49,1.49,0,0,1,331.57,126.62Z"/><path class="cls-1" d="M358,120.6a1.51,1.51,0,0,1-1.88-1l-4.25-13.94a1.51,1.51,0,1,1,2.88-.88L359,118.71A1.52,1.52,0,0,1,358,120.6Z"/><path class="cls-1" d="M373.72,101.57a1.51,1.51,0,0,1-1.47-.34l-10.66-10a1.51,1.51,0,0,1,2.06-2.21L374.3,99a1.5,1.5,0,0,1,.08,2.13A1.62,1.62,0,0,1,373.72,101.57Z"/><path class="cls-1" d="M383.72,82.79a1.47,1.47,0,0,1-.78,0l-14.2-3.29a1.5,1.5,0,1,1,.68-2.93l14.2,3.29a1.51,1.51,0,0,1,.1,2.91Z"/><path class="cls-1" d="M383,61.52l-13.94,4.25a1.51,1.51,0,1,1-.88-2.88l13.94-4.25a1.51,1.51,0,1,1,.88,2.88Z"/><path class="cls-1" d="M361.78,54.12a1.52,1.52,0,0,1-1.47-.34,1.5,1.5,0,0,1-.07-2.13L370.19,41a1.51,1.51,0,1,1,2.2,2.06l-9.95,10.65A1.39,1.39,0,0,1,361.78,54.12Z"/><path class="cls-1" d="M349.66,47.66a1.47,1.47,0,0,1-.78,0,1.52,1.52,0,0,1-1.13-1.81L351,31.68a1.52,1.52,0,0,1,1.81-1.13A1.5,1.5,0,0,1,354,32.36l-3.29,14.2A1.49,1.49,0,0,1,349.66,47.66Z"/><path class="cls-17" d="M293.46,97c2.88-3.65,3-5.93,5.23-7.72s4.5-1.9,7.83-.94c2.52.72,5.47.36,6.49,1.29.28.2-.17,1.81-1.35,2.39-1.42.7-3.71.53-5.41.54-3.85,0-.69,3.8-4.4,7.64C300.27,103,293.46,97,293.46,97Z"/></g></g><g id="Paper_Plane" data-name="Paper Plane"><polygon class="cls-15" points="381.78 154.87 417.15 132.22 432.74 137.22 381.78 154.87"/><polygon class="cls-15" points="381.78 154.87 412.35 129.37 405.56 121.53 381.78 154.87"/><polygon class="cls-15" points="412.35 129.37 412.35 135.29 381.78 154.87 412.35 129.37"/><polygon class="cls-32" points="412.35 129.37 412.35 135.29 381.78 154.87 412.35 129.37"/><path class="cls-1" d="M419.61,126a1,1,0,0,1-.66-1.76c.62-.53,1.22-1.08,1.82-1.64a1,1,0,0,1,1.38,1.44c-.62.59-1.25,1.16-1.89,1.72A1,1,0,0,1,419.61,126Z"/><path class="cls-1" d="M424.87,120.71a1,1,0,0,1-.66-.25,1,1,0,0,1-.09-1.41c1-1.2,2.07-2.47,3-3.78a1,1,0,0,1,1.4-.21,1,1,0,0,1,.21,1.4c-1,1.36-2.06,2.67-3.14,3.91A1,1,0,0,1,424.87,120.71Zm5.86-7.92a1,1,0,0,1-.53-.15,1,1,0,0,1-.32-1.38c.85-1.35,1.66-2.77,2.42-4.21a1,1,0,1,1,1.77.93c-.78,1.49-1.62,3-2.49,4.34A1,1,0,0,1,430.73,112.79Zm4.61-8.72a1,1,0,0,1-.41-.08,1,1,0,0,1-.51-1.32c.65-1.47,1.26-3,1.82-4.51a1,1,0,0,1,1.88.68c-.57,1.57-1.2,3.13-1.87,4.64A1,1,0,0,1,435.34,104.07Zm3.38-9.26a1,1,0,0,1-.29,0,1,1,0,0,1-.67-1.24c.45-1.55.86-3.13,1.22-4.71a1,1,0,0,1,1.95.43c-.37,1.63-.79,3.26-1.25,4.84A1,1,0,0,1,438.72,94.81Zm2.16-9.62h-.16a1,1,0,0,1-.83-1.15c.26-1.59.47-3.22.62-4.83a1,1,0,0,1,2,.19c-.16,1.66-.37,3.32-.63,5A1,1,0,0,1,440.88,85.19Zm.94-9.82h0a1,1,0,0,1-1-1q0-1.16,0-2.31c0-.85,0-1.71,0-2.56a1,1,0,0,1,1-1,1,1,0,0,1,1,1c0,.88,0,1.75,0,2.63s0,1.58,0,2.37A1,1,0,0,1,441.82,75.37Zm-.35-9.85a1,1,0,0,1-1-.9c-.16-1.62-.39-3.24-.66-4.82a1,1,0,1,1,2-.34c.28,1.62.51,3.29.69,4.95a1,1,0,0,1-.9,1.1Zm-1.71-9.72a1,1,0,0,1-1-.75c-.4-1.58-.86-3.14-1.37-4.66a1,1,0,1,1,1.9-.64c.53,1.56,1,3.18,1.41,4.81a1,1,0,0,1-.72,1.21A1.07,1.07,0,0,1,439.76,55.8Zm-3.16-9.34a1,1,0,0,1-.91-.6c-.65-1.49-1.36-3-2.11-4.37a1,1,0,1,1,1.76-.94c.78,1.45,1.52,3,2.18,4.52a1,1,0,0,1-.52,1.31A.92.92,0,0,1,436.6,46.46Zm-4.67-8.67a1,1,0,0,1-.83-.45c-.89-1.35-1.85-2.67-2.85-3.92a1,1,0,0,1,1.56-1.25c1,1.3,2,2.67,3,4.07a1,1,0,0,1-.29,1.38A1,1,0,0,1,431.93,37.79Zm-6.15-7.7a1,1,0,0,1-.73-.31c-1.09-1.15-2.26-2.29-3.48-3.39a1,1,0,0,1,1.34-1.48c1.26,1.13,2.46,2.31,3.59,3.49a1,1,0,0,1,0,1.41A1,1,0,0,1,425.78,30.09Zm-7.31-6.62a1,1,0,0,1-.62-.22c-1.25-1-2.57-1.95-3.92-2.89a1,1,0,0,1-.25-1.39,1,1,0,0,1,1.39-.25c1.38,1,2.73,2,4,3a1,1,0,0,1-.62,1.79Zm-8.11-5.62a1,1,0,0,1-.52-.15c-1.36-.83-2.79-1.65-4.23-2.43a1,1,0,0,1,.95-1.76c1.48.8,2.93,1.63,4.33,2.48a1,1,0,0,1-.53,1.86Zm-8.68-4.69a.9.9,0,0,1-.42-.1c-1.46-.69-3-1.37-4.46-2a1,1,0,1,1,.77-1.85c1.53.64,3.06,1.33,4.55,2a1,1,0,0,1-.44,1.9Zm-101-2.49a1,1,0,0,1-.34-1.94c1.57-.56,3.15-1.1,4.7-1.6A1,1,0,0,1,305.69,9c-1.54.49-3.1,1-4.64,1.58A1,1,0,0,1,300.71,10.67Zm91.88-1.33a1.07,1.07,0,0,1-.35-.06c-1.5-.55-3.06-1.08-4.63-1.58a1,1,0,1,1,.61-1.9c1.6.5,3.18,1,4.71,1.6a1,1,0,0,1-.34,1.94ZM310.1,7.65a1,1,0,0,1-.27-2c1.57-.45,3.18-.88,4.79-1.29a1,1,0,0,1,1.22.73,1,1,0,0,1-.73,1.21c-1.59.4-3.18.83-4.73,1.27A.9.9,0,0,1,310.1,7.65Zm73.08-1.29a.82.82,0,0,1-.26,0c-1.54-.41-3.14-.81-4.75-1.18a1,1,0,1,1,.45-1.95c1.63.37,3.26.78,4.82,1.2a1,1,0,0,1-.26,2ZM319.67,5.25a1,1,0,0,1-.21-2c1.62-.35,3.26-.68,4.87-1a1,1,0,0,1,.36,2c-1.59.29-3.21.61-4.81,1A.76.76,0,0,1,319.67,5.25Zm53.89-1.08a.55.55,0,0,1-.18,0c-1.57-.29-3.2-.56-4.83-.8a1,1,0,0,1-.84-1.13,1,1,0,0,1,1.13-.84c1.66.24,3.31.51,4.91.81a1,1,0,0,1-.19,2Zm-44.19-.68a1,1,0,0,1-.14-2c1.64-.24,3.3-.45,4.92-.64a1,1,0,0,1,1.11.89,1,1,0,0,1-.89,1.1c-1.6.18-3.23.39-4.85.63Zm34.43-.74h-.11c-1.59-.17-3.23-.31-4.88-.43a1,1,0,0,1-.92-1.06A1,1,0,0,1,359,.32c1.67.11,3.34.26,5,.43a1,1,0,0,1-.11,2ZM339.17,2.4a1,1,0,0,1-.07-2c1.65-.12,3.32-.22,4.95-.29a1,1,0,0,1,1,1,1,1,0,0,1-1,1c-1.61.07-3.25.16-4.88.29ZM354,2.07h0c-1.43,0-2.86-.07-4.27-.07H349a1,1,0,1,1,0-2h.63c1.43,0,2.89,0,4.34.07a1,1,0,0,1,1,1A1,1,0,0,1,354,2.07Z"/><path class="cls-1" d="M293.68,13.38a1,1,0,0,1-.92-.62,1,1,0,0,1,.54-1.31l2.34-.94a1,1,0,0,1,.73,1.86l-2.31.93A1,1,0,0,1,293.68,13.38Z"/></g><g id="Paper_Plane-2" data-name="Paper Plane"><polygon class="cls-15" points="71.02 104.55 117 82.01 83.84 113.54 71.02 104.55"/><polygon class="cls-15" points="117 82.01 66.3 98.69 53.48 89.69 117 82.01"/><polygon class="cls-33" points="66.3 98.69 68.31 111.56 71.02 104.55 117 82.01 66.3 98.69"/><polygon class="cls-32" points="66.3 98.69 68.31 111.56 71.02 104.55 117 82.01 66.3 98.69"/><polygon class="cls-34" points="68.31 111.56 75.29 107.55 71.02 104.55 68.31 111.56"/><polygon class="cls-34" points="71.02 104.55 75.29 107.55 74.18 108.19 71.02 104.55"/><path class="cls-1" d="M74.47,239.52a1,1,0,0,1-.33-.06c-1.63-.58-3.21-1.18-4.71-1.77a1,1,0,0,1-.56-1.3,1,1,0,0,1,1.3-.56c1.48.58,3,1.17,4.64,1.75a1,1,0,0,1-.34,1.94Zm-9.28-3.69a1.1,1.1,0,0,1-.4-.08c-1.56-.69-3.1-1.4-4.57-2.12a1,1,0,1,1,.88-1.8c1.45.71,3,1.41,4.49,2.09a1,1,0,0,1-.4,1.91Zm-9-4.4a.94.94,0,0,1-.48-.13c-1.49-.81-3-1.66-4.36-2.53a1,1,0,1,1,1-1.7c1.38.85,2.81,1.68,4.27,2.48a1,1,0,0,1-.48,1.88Zm-8.5-5.25a1,1,0,0,1-.57-.18c-1.39-1-2.76-2-4-3a1,1,0,0,1,1.24-1.57c1.26,1,2.59,2,4,3a1,1,0,0,1,.25,1.39A1,1,0,0,1,47.72,226.18ZM39.92,220a1,1,0,0,1-.68-.26c-1.25-1.15-2.47-2.35-3.61-3.56a1,1,0,0,1,0-1.41,1,1,0,0,1,1.42,0c1.1,1.18,2.28,2.34,3.5,3.45a1,1,0,0,1-.67,1.74Zm-6.84-7.27a1,1,0,0,1-.78-.37c-1.06-1.31-2.08-2.68-3-4.08a1,1,0,1,1,1.65-1.12c.92,1.35,1.9,2.68,2.92,3.95a1,1,0,0,1-.15,1.4A1,1,0,0,1,33.08,212.69Zm-5.6-8.26a1,1,0,0,1-.88-.51c-.82-1.45-1.59-3-2.3-4.52a1,1,0,0,1,.49-1.32,1,1,0,0,1,1.32.49c.69,1.49,1.44,3,2.24,4.37a1,1,0,0,1-.87,1.49Zm-4.19-9.06a1,1,0,0,1-.93-.65c-.58-1.56-1.11-3.18-1.59-4.82a1,1,0,0,1,1.93-.55c.46,1.59,1,3.16,1.53,4.67a1,1,0,0,1-.59,1.29A1,1,0,0,1,23.29,195.37Zm-2.78-9.59a1,1,0,0,1-1-.79c-.35-1.61-.66-3.28-.93-5a1,1,0,0,1,2-.31c.26,1.65.56,3.28.91,4.86a1,1,0,0,1-.77,1.19ZM19,175.91a1,1,0,0,1-1-.9c-.17-1.61-.31-3.3-.41-5a1,1,0,0,1,.94-1,1,1,0,0,1,1.05.94c.1,1.69.24,3.35.4,4.93a1,1,0,0,1-.89,1.1Zm-.52-10h0a1,1,0,0,1-1-1c0-1.68.13-3.39.3-5.07a1,1,0,0,1,1.1-.9,1,1,0,0,1,.89,1.1c-.17,1.63-.26,3.28-.29,4.91A1,1,0,0,1,18.43,165.93Zm1-9.94-.18,0a1,1,0,0,1-.81-1.16c.31-1.66.68-3.33,1.12-5a1,1,0,1,1,1.93.52c-.42,1.58-.79,3.19-1.08,4.8A1,1,0,0,1,19.43,156ZM22,146.33a1,1,0,0,1-.33-.05,1,1,0,0,1-.61-1.28c.56-1.59,1.2-3.17,1.88-4.72a1,1,0,0,1,1.32-.5,1,1,0,0,1,.51,1.32c-.67,1.49-1.28,3-1.82,4.57A1,1,0,0,1,22,146.33Zm4.07-9.12a1,1,0,0,1-.48-.12,1,1,0,0,1-.4-1.36c.81-1.48,1.68-2.95,2.6-4.36a1,1,0,0,1,1.68,1.09c-.89,1.37-1.74,2.79-2.52,4.23A1,1,0,0,1,26.07,137.21Zm5.45-8.37a1,1,0,0,1-.61-.21,1,1,0,0,1-.18-1.4c1-1.34,2.14-2.65,3.27-3.89a1,1,0,1,1,1.48,1.34c-1.1,1.21-2.16,2.48-3.16,3.77A1,1,0,0,1,31.52,128.84Zm6.73-7.38a1,1,0,0,1-.73-.32,1,1,0,0,1,0-1.41c1.24-1.16,2.54-2.27,3.86-3.31A1,1,0,0,1,42.67,118c-1.28,1-2.54,2.09-3.73,3.21A1,1,0,0,1,38.25,121.46Zm7.84-6.19a1,1,0,0,1-.55-1.84c1.4-.93,2.86-1.82,4.34-2.63a1,1,0,0,1,1.36.39,1,1,0,0,1-.39,1.36c-1.44.79-2.85,1.65-4.21,2.55A1,1,0,0,1,46.09,115.27Zm8.74-4.84a1,1,0,0,1-.41-1.91c1.53-.7,3.11-1.34,4.7-1.91a1,1,0,1,1,.68,1.88c-1.54.56-3.08,1.18-4.56,1.85A1,1,0,0,1,54.83,110.43Z"/></g></g></g></svg>